<svg width="315" height="246" viewBox="0 0 315 246" fill="none" xmlns="http://www.w3.org/2000/svg">
<g clip-path="url(#clip0_1_204)">
<path d="M87.6643 87.1616C86.4755 99.5852 67.6768 107.843 57.1027 109.192C45.2965 110.7 30.5693 111.422 19.9952 106.578C17.7069 109.448 16.5309 112.976 15.7375 116.453C14.564 121.603 15.5309 122.892 19.8319 126.182C26.3575 131.175 35.6382 134.904 43.5898 135.953C68.7023 139.262 95.0776 135.688 108.58 111.33C117.404 95.4092 109.228 83.0238 91.4985 84.4065C91.3709 84.9524 91.5393 85.4269 91.4577 85.9652L87.6643 87.1616Z" fill="#E3F3FE"/>
<path d="M91.4907 84.1336C91.3631 84.6795 91.5315 85.154 91.4498 85.6922L87.6564 86.8887C86.8656 95.1388 78.3094 101.552 69.5542 105.325C70.8195 115.21 69.7532 125.121 75.8374 134.634C75.9012 134.731 75.965 134.825 76.0288 134.92C89.2763 131.904 100.968 124.777 108.572 111.057C117.397 95.1362 109.22 82.7509 91.4907 84.1336Z" fill="#CCD1E2"/>
<path d="M74.4165 102.555C74.4165 102.555 74.0339 108.578 75.2788 114.192C76.5263 119.807 82.5365 133.129 82.5365 133.129L84.3376 132.351C84.3376 132.351 78.3656 120.486 76.9472 115.241C75.5288 109.996 76.039 101.963 76.039 101.963L74.414 102.555H74.4165Z" fill="#537E91"/>
<path d="M81.2253 98.3607C81.8248 100.348 87.8172 112.943 87.8172 112.943L88.432 108.733L82.0799 96.3326L81.2253 98.3607Z" fill="#537E91"/>
<path d="M140.04 183.683C141.976 194.563 152.78 229.987 176.066 241.926C199.352 253.865 248.788 235.755 248.788 235.755L241.515 216.273C241.515 216.273 219.734 226.158 200.686 209.183C181.637 192.209 184.933 166.06 184.933 166.06C184.933 166.06 148.259 164.326 146.665 166.009C145.07 167.693 140.04 183.683 140.04 183.683Z" fill="#CCD1E2"/>
<path d="M179.063 171.323C184.645 175.545 204.091 187.043 237.385 185.043C270.679 183.043 292.513 148.371 292.513 148.371L282.432 132.792C282.432 132.792 265.253 144.377 247.166 142.683C220.908 140.223 204.464 120.338 204.464 120.338L167.851 141.014L179.063 171.323Z" fill="#CCD1E2"/>
<path d="M84.2815 83.4269C84.9626 88.3275 80.8172 116.869 100.756 146.394C115.284 167.91 140.688 187.402 140.688 187.402C140.688 187.402 154.002 174.466 162.198 174.244C170.392 174.022 184.67 176.367 184.67 176.367C184.67 176.367 180.591 162.262 181.3 152.951C182.507 137.063 204.489 121.157 204.489 121.157C204.489 121.157 183.8 104.226 170.275 89.2867C156.747 74.3478 132.124 53.4241 132.124 53.4241L99.5342 61.1461L84.2866 83.4295L84.2815 83.4269Z" fill="#E3F3FE"/>
<path d="M217.875 170.933C217.768 174.025 218.729 177.994 221.107 179.981C224.403 182.739 228.538 183.321 232.492 183.418C238.707 183.571 248.658 181.68 249.564 173.67C249.908 170.637 248.462 167.759 246.268 165.731C243.707 163.364 239.977 163.254 236.778 162.956C231.462 162.461 218.14 163.31 217.875 170.93V170.933Z" fill="#E3F3FE"/>
<path d="M232.604 164.101C233.357 164.05 234.013 164.701 234.071 165.553L235.01 179.538C235.066 180.39 234.502 181.122 233.75 181.173C232.997 181.224 232.339 180.573 232.283 179.721L231.344 165.734C231.288 164.882 231.852 164.15 232.604 164.099V164.101Z" fill="#CCD1E2"/>
<path d="M227.689 165.532C228.441 165.481 229.092 166.05 229.143 166.803L229.972 179.163C230.023 179.915 229.454 180.566 228.701 180.617C227.949 180.668 227.298 180.099 227.247 179.346L226.418 166.986C226.367 166.234 226.936 165.583 227.689 165.532Z" fill="#CCD1E2"/>
<path d="M222.694 167.474C223.446 167.423 224.089 167.849 224.127 168.423L224.76 177.854C224.798 178.428 224.219 178.935 223.467 178.987C222.714 179.038 222.071 178.612 222.033 178.038L221.4 168.606C221.362 168.032 221.941 167.525 222.694 167.474Z" fill="#CCD1E2"/>
<path d="M238.418 164.831C239.171 164.78 239.821 165.326 239.87 166.048L240.668 177.923C240.717 178.645 240.145 179.272 239.393 179.323C238.64 179.374 237.99 178.828 237.941 178.106L237.143 166.234C237.094 165.512 237.666 164.884 238.418 164.833V164.831Z" fill="#CCD1E2"/>
<path d="M244.026 166.976C244.778 166.925 245.416 167.298 245.452 167.808L246.015 176.186C246.049 176.696 245.467 177.15 244.714 177.201C243.962 177.252 243.324 176.879 243.288 176.369L242.724 167.992C242.691 167.481 243.273 167.027 244.026 166.976Z" fill="#CCD1E2"/>
<path d="M173.639 222.836C172.377 225.66 171.777 229.701 173.231 232.436C175.249 236.232 178.864 238.324 182.489 239.9C188.191 242.38 198.122 244.367 201.974 237.286C203.433 234.604 203.176 231.395 201.903 228.691C200.418 225.535 197.005 224.03 194.152 222.553C189.413 220.097 176.749 215.875 173.639 222.839V222.836Z" fill="#E3F3FE"/>
<path d="M189.859 222.043C190.576 222.28 190.941 223.127 190.673 223.939L186.285 237.252C186.017 238.064 185.221 238.531 184.504 238.293C183.788 238.056 183.423 237.209 183.691 236.398L188.079 223.084C188.346 222.273 189.142 221.806 189.859 222.043Z" fill="#CCD1E2"/>
<path d="M184.765 221.52C185.481 221.757 185.872 222.528 185.634 223.245L181.757 235.01C181.52 235.727 180.749 236.117 180.032 235.88C179.316 235.645 178.925 234.872 179.162 234.155L183.04 222.39C183.277 221.673 184.048 221.283 184.765 221.52Z" fill="#CCD1E2"/>
<path d="M179.405 221.441C180.122 221.678 180.555 222.311 180.377 222.859L177.42 231.837C177.239 232.382 176.512 232.635 175.795 232.4C175.078 232.163 174.645 231.53 174.823 230.982L177.782 222.005C177.963 221.459 178.691 221.206 179.407 221.444L179.405 221.441Z" fill="#CCD1E2"/>
<path d="M194.971 224.903C195.688 225.14 196.086 225.888 195.859 226.576L192.135 237.88C191.908 238.569 191.142 238.936 190.425 238.699C189.709 238.462 189.311 237.714 189.538 237.025L193.262 225.722C193.489 225.033 194.255 224.666 194.971 224.903Z" fill="#CCD1E2"/>
<path d="M199.362 228.997C200.078 229.234 200.53 229.819 200.369 230.303L197.742 238.278C197.581 238.763 196.872 238.967 196.155 238.729C195.438 238.492 194.987 237.908 195.147 237.423L197.775 229.446C197.936 228.961 198.645 228.757 199.362 228.995V228.997Z" fill="#CCD1E2"/>
<path d="M277.24 135.81C278.095 133.392 281.194 123.652 286.559 123.239C287.452 123.17 296.988 128.902 303.819 134.907C313.582 143.486 314.248 146.604 314.248 146.604C309.217 152.425 292.108 149.591 292.108 149.591L277.238 135.813L277.24 135.81Z" fill="#E3F3FE"/>
<path d="M236.533 218.137C238.199 216.183 244.577 208.199 249.735 209.734C250.592 209.989 257.444 218.757 261.674 226.811C267.717 238.316 267.225 241.464 267.225 241.464C260.444 245.099 245.482 236.326 245.482 236.326L236.531 218.137H236.533Z" fill="#E3F3FE"/>
<path d="M131.182 50.8193C131.182 50.8193 136.027 38.2886 130.95 24.5512C124.052 5.88521 103.231 -9.94404 73.1257 7.61992C40.4697 26.6711 48.0693 45.0922 56.5005 60.3118C66.072 77.5951 84.0441 79.4217 84.0441 79.4217L131.182 50.8193Z" fill="#E3F3FE"/>
<path d="M53.4801 46.6331C53.8577 42.7912 54.5796 39.0208 70.2278 29.0028C87.1871 18.1456 97.1413 18.0256 100.774 20.3037C105.384 23.1941 114.667 41.0795 112.445 46.0081C111.085 49.0285 102.394 51.6842 87.4091 60.8552C75.7916 67.9649 73.9089 72.4497 71.0594 71.5772C68.2099 70.7022 63.2226 67.0899 59.5134 61.0312C55.8041 54.9699 53.2531 48.9137 53.4776 46.6356L53.4801 46.6331Z" fill="#5E73DD"/>
<path d="M99.9321 23.2017C96.2994 20.9236 86.3452 21.0435 69.3858 31.9008C58.3117 38.9902 54.7122 42.9519 53.4214 46.0234C53.8296 42.3244 55.0694 38.4672 70.1231 28.8293C87.0824 17.9721 97.0366 17.8522 100.669 20.1303C105.279 23.0206 114.56 40.906 112.34 45.8346C112.241 46.054 112.103 46.2734 111.925 46.4928C111.562 39.7223 103.96 25.7298 99.9295 23.2017H99.9321Z" fill="#4B60AD"/>
<path d="M134.063 51.8245C135.736 54.3271 128.379 54.0465 104.958 68.3834C86.6591 79.5825 84.0494 83.9473 84.0494 83.9473C80.5289 81.0723 80.9983 77.6335 101.233 65.4701C122.402 52.7455 131.08 47.3602 134.063 51.8245Z" fill="#537E91"/>
<path opacity="0.3" d="M58.452 46.3296C58.827 41.8041 63.9776 39.3806 67.6664 37.128C75.0007 32.6458 79.4726 35.1841 72.9828 40.1357C72.4726 40.5234 71.9624 40.9214 71.4649 41.3296C71.4649 41.3296 65.6919 43.5541 65.8934 48.9904C65.8934 49.0516 72.0899 62.2864 65.4801 59.669C61.3449 58.0313 58.0923 50.6613 58.452 46.3271V46.3296Z" fill="#E3F3FE"/>
<path d="M129.397 53.771C128.593 54.3399 120.08 62.2532 121.968 82.1284C123.884 102.305 133.984 141.938 133.984 141.938L126.257 149.254C126.257 149.254 97.4527 129.04 91.2357 117.953C82.33 102.067 84.2612 82.608 84.2612 82.608L86.9194 79.8019C86.9194 79.8019 86.2842 103.172 93.3123 113.795C104.144 130.175 124.721 143.007 124.721 143.007L129.54 139.323C129.54 139.323 117.262 94.8505 116.529 83.0953C115.56 67.5416 121.042 58.0976 121.042 58.0976L129.397 53.771Z" fill="#537E91"/>
<path d="M163.93 125.18C166.698 129.32 166.532 134.287 163.56 136.272C160.588 138.257 155.938 136.512 153.17 132.371C150.402 128.231 150.568 123.264 153.54 121.279C156.512 119.295 161.162 121.04 163.93 125.18Z" fill="#3E5F6B"/>
<path d="M161.79 126.879C164.558 131.019 164.392 135.986 161.42 137.971C158.448 139.956 153.797 138.211 151.03 134.07C148.262 129.93 148.427 124.963 151.399 122.978C154.371 120.994 159.022 122.738 161.79 126.879Z" fill="#5E73DD"/>
<path d="M180.64 148.866C184.739 128.8 201.681 118.499 201.681 118.499C201.681 118.499 204.39 117.606 206.642 120.004C208.895 122.402 207.847 124.07 207.847 124.07C207.847 124.07 189.637 137.961 185.706 154.193C184.698 158.356 184.966 177.173 184.966 177.173L184.155 177.469C184.155 177.469 178.515 159.277 180.642 148.864L180.64 148.866Z" fill="#537E91"/>
<path d="M141.292 189.571C141.292 189.571 142.82 179.91 161.17 176.729C176.135 174.134 184.15 177.471 184.15 177.471L184.668 176.364C184.668 176.364 176.872 171.109 163.486 171.474C142.354 172.048 135.649 183.165 135.649 183.165C135.649 183.165 133.486 184.045 135.223 187.55C136.958 191.056 141.292 189.571 141.292 189.571Z" fill="#537E91"/>
<path d="M23.5921 103.21C22.9391 100.44 19.4033 96.5827 19.7758 90.1949C19.9773 86.7203 16.0589 87.5622 14.5155 91.0673C13.0971 94.2842 12.7859 96.9857 13.8293 99.9883C8.29606 96.8863 1.44395 97.871 3.01794 105.016C-0.548421 106.529 -1.27802 113.534 3.23223 114.18C-1.24231 114.639 -0.311174 119.31 1.51793 121.011C5.54348 124.754 18.4186 126.106 21.8906 127.677L27.9493 109.289C28.0998 109.098 28.2376 109.144 28.3243 108.914C26.985 107.486 24.2682 106.08 23.5921 103.21Z" fill="#CCD1E2"/>
<path d="M24.559 107.243L17.536 125.927C17.536 125.927 17.1355 128.774 19.3804 129.552C21.6253 130.33 22.8881 129.147 22.8881 129.147L30.3678 110.215C30.3678 110.215 31.628 107.445 28.8218 106.473C24.6279 105.021 24.559 107.243 24.559 107.243Z" fill="#537E91"/>
<path d="M287.608 146.451C285.12 148.494 281.679 148.415 279.924 146.277C278.169 144.139 278.763 140.749 281.25 138.706C283.738 136.662 287.179 136.741 288.934 138.879C290.689 141.017 290.095 144.407 287.608 146.451Z" fill="#537E91"/>
<path d="M242.928 230.918C239.842 231.829 236.704 230.416 235.921 227.763C235.138 225.109 237.007 222.219 240.094 221.308C243.181 220.398 246.319 221.811 247.102 224.464C247.885 227.117 246.015 230.007 242.928 230.918Z" fill="#537E91"/>
<path d="M202.974 59.1511C193.54 56.4572 183.854 54.9725 174.234 53.2633C160.349 50.799 136.394 48.2071 128.198 63.2328C125.08 67.8476 124.425 74.289 127.386 79.4421C132.841 88.9346 149.843 89.7662 159.382 87.7228C172.106 84.9958 184.145 81.5901 197.346 80.5799C207.683 79.7891 215.627 82.9116 224.821 84.0085C225.597 79.3554 227.132 74.0033 228.694 69.5594C222.352 62.891 211.507 61.5848 202.974 59.1511Z" fill="#E3F3FE"/>
<path d="M129.284 63.021C126.167 67.6359 125.511 74.0772 128.473 79.2304C133.927 88.7228 150.93 89.5545 160.468 87.5111C167.019 86.108 173.387 84.5263 179.826 83.1819C182.647 75.4268 183.384 66.1741 181.451 58.6409C181.071 57.1638 180.448 55.5107 179.637 53.8092C178.198 53.5592 176.759 53.3092 175.323 53.0541C161.438 50.5898 137.483 47.9979 129.287 63.0236L129.284 63.021Z" fill="#CCD1E2"/>
<path d="M140.507 53.5593L141.055 87.0749L143.254 87.5622L142.303 52.6001L140.507 53.5593Z" fill="#537E91"/>
<path d="M157.481 88.0851C157.466 87.5392 157.943 78.233 158.025 67.8425C158.055 63.868 155.747 51.1383 155.747 51.1383L157.749 51.0847C157.749 51.0847 160.242 62.3144 160.002 66.8782C159.762 71.4395 160.466 87.5111 159.374 87.5417C158.282 87.5723 157.481 88.0851 157.481 88.0851Z" fill="#537E91"/>
<path d="M169.438 52.0414C169.453 52.5873 170.369 59.4879 171.104 66.391C171.586 70.9344 169.986 85.5545 169.986 85.5545L172.323 84.3963C172.323 84.3963 173.221 71.6742 173.137 67.4267C172.958 58.3042 171.446 52.1664 171.446 52.1664L169.438 52.0388V52.0414Z" fill="#537E91"/>
<path d="M243.875 80.8937C243.258 80.6233 242.576 80.3426 242.023 79.9829C243.781 79.0824 246.383 80.909 248.347 80.6641C250.464 80.4013 251.656 78.062 250.309 76.1895C248.145 73.1819 242.742 70.4982 239.576 69.766C234.842 68.6716 230.066 67.6129 225.433 66.3374C225.426 66.6333 225.196 66.8068 225.153 67.0415L220.694 83.9447C222.745 85.182 223.913 86.7279 225.204 89.0162C226.148 90.6871 226.171 92.881 226.862 94.6413C227.752 96.9117 230.204 96.7229 231.061 94.6693C231.87 92.7331 231.229 90.5877 231.783 88.6795C233.408 90.0723 235.24 91.1565 236.89 92.5545C238.421 93.8479 240.181 95.4959 242.191 95.5061C244.477 95.5163 245.821 93.3657 244.906 91.1973C244.237 89.6106 242.196 88.6514 240.911 87.6693C240.329 87.2254 239.791 86.7075 239.258 86.182C240.63 85.4983 243.324 87.9193 244.439 88.7866C245.844 89.881 248.245 91.33 249.827 89.8861C254.444 85.6718 246.62 82.0952 243.872 80.8886L243.875 80.8937Z" fill="#CCD1E2"/>
<path d="M222.081 64.641L217.525 83.08C217.525 83.08 217.464 85.8147 219.663 86.3019C221.862 86.7892 222.923 85.529 222.923 85.529L227.88 66.8068C227.88 66.8068 228.763 64.0491 226.013 63.442C221.903 62.5338 222.081 64.6435 222.081 64.6435V64.641Z" fill="#537E91"/>
<path d="M116.7 6.60975C116.7 6.60975 124.205 6.54342 130.966 18.0002C138.708 31.1202 133.491 37.332 133.491 37.332C133.491 37.332 129.068 36.2682 121.644 24.9645C113.519 12.5894 116.698 6.6123 116.698 6.6123L116.7 6.60975Z" fill="#537E91"/>
</g>
<defs>
<clipPath id="clip0_1_204">
<rect width="314.248" height="246" fill="white"/>
</clipPath>
</defs>
</svg>
