<svg width="1440" height="378" viewBox="0 0 1440 378" fill="none" xmlns="http://www.w3.org/2000/svg">
<path d="M0 409.368H1440V8.76012C1422.13 1.14201 1402.55 -1.57864 1383.29 0.878084C1364.02 3.33481 1345.75 10.8802 1330.36 22.7382C1314.98 34.5961 1303.03 50.3387 1295.74 68.3466C1288.46 86.3546 1286.1 105.978 1288.92 125.198C1282.15 124.347 1275.32 124.275 1268.54 124.982C1272.43 118.29 1274.52 110.704 1274.6 102.964C1274.69 95.224 1272.77 87.5937 1269.03 80.8172C1265.29 74.0407 1259.85 68.3492 1253.26 64.2976C1246.66 60.246 1239.13 57.9725 1231.39 57.6988C1223.66 57.425 1215.98 59.1605 1209.12 62.7359C1202.25 66.3112 1196.43 71.6044 1192.22 78.0996C1188.01 84.5947 1185.55 92.0701 1185.09 99.797C1184.63 107.524 1186.18 115.238 1189.58 122.189C1181.32 118.446 1172.21 116.972 1163.19 117.916C1154.17 118.86 1145.56 122.19 1138.26 127.562C1130.95 132.935 1125.2 140.156 1121.61 148.485C1118.02 156.813 1116.71 165.948 1117.81 174.95C1116.82 174.677 1115.81 174.403 1114.8 174.173C1102.09 171.223 1088.83 171.511 1076.25 175.01C1063.67 178.509 1052.17 185.109 1042.8 194.203C1028.27 189.442 1012.5 190.019 998.352 195.83C994.767 197.305 991.321 199.098 988.056 201.187C987.71 200.208 987.35 199.229 986.962 198.307C983.965 190.995 979.405 184.427 973.601 179.064C967.797 173.7 960.89 169.672 953.364 167.261C945.838 164.85 937.876 164.114 930.036 165.106C922.196 166.098 914.668 168.793 907.98 173.002C901.292 177.211 895.605 182.833 891.32 189.473C887.034 196.112 884.253 203.609 883.172 211.437C882.09 219.265 882.735 227.235 885.06 234.788C887.385 242.341 891.334 249.294 896.63 255.159C888.526 251.675 879.766 249.977 870.947 250.181C862.128 250.385 853.456 252.485 845.521 256.339C837.586 260.193 830.574 265.711 824.961 272.517C819.349 279.323 815.268 287.257 812.995 295.781C802.288 288.301 789.875 283.628 776.893 282.189C763.912 280.75 750.777 282.591 738.691 287.544C737.726 287.933 736.776 288.365 735.811 288.797C735.469 279.729 732.718 270.916 727.84 263.264C722.962 255.613 716.134 249.399 708.058 245.262C699.981 241.124 690.949 239.213 681.889 239.725C672.829 240.237 664.069 243.154 656.51 248.174C658.756 240.771 659.046 232.913 657.352 225.364C655.658 217.816 652.037 210.835 646.842 205.102C641.648 199.37 635.057 195.08 627.711 192.652C620.366 190.224 612.517 189.74 604.929 191.247C597.341 192.755 590.273 196.202 584.413 201.254C578.554 206.305 574.103 212.788 571.494 220.071C568.886 227.354 568.208 235.189 569.528 242.812C570.847 250.435 574.119 257.586 579.024 263.568C572.222 263.958 565.486 265.127 558.95 267.053C558.327 239.388 547.246 212.986 527.94 193.162C508.633 173.339 482.533 161.564 454.894 160.21C427.255 158.856 400.13 168.022 378.977 185.863C357.825 203.705 344.216 228.897 340.891 256.368C338.25 250.397 334.356 245.063 329.472 240.73C324.588 236.397 318.829 233.165 312.586 231.253C306.342 229.342 299.761 228.797 293.288 229.653C286.816 230.51 280.603 232.75 275.072 236.22C269.541 239.689 264.821 244.309 261.233 249.764C257.645 255.218 255.272 261.382 254.276 267.834C253.28 274.287 253.684 280.879 255.46 287.162C257.237 293.445 260.344 299.272 264.571 304.248C257.855 301.1 250.539 299.436 243.121 299.368C235.704 299.301 228.359 300.831 221.586 303.857C214.813 306.882 208.771 311.33 203.871 316.899C198.972 322.468 195.329 329.027 193.19 336.13C184.396 329.556 174.093 325.294 163.225 323.734C152.356 322.175 141.271 323.367 130.982 327.202C130.162 327.504 129.355 327.835 128.549 328.181C128.507 320.551 126.433 313.069 122.541 306.507C118.648 299.944 113.076 294.537 106.4 290.843C99.7238 287.148 92.1837 285.299 84.5556 285.486C76.9276 285.674 69.4871 287.89 63 291.907C65.7848 283.771 65.6985 274.926 62.7553 266.845C59.8121 258.765 54.1897 251.936 46.8242 247.497C39.4588 243.057 30.7949 241.275 22.2752 242.446C13.7554 243.618 5.89403 247.672 0 253.934L0 409.368Z" fill="url(#paint0_linear_1_407)"/>
<path d="M1441 105.556C1438.86 104.992 1436.69 104.5 1434.46 104.116C1422.15 101.994 1409.52 102.908 1397.64 106.779C1385.77 110.65 1375.02 117.361 1366.33 126.33C1357.64 135.299 1351.28 146.253 1347.78 158.242C1344.29 170.231 1343.77 182.892 1346.28 195.124C1341.51 194.797 1336.72 195.019 1332 195.784C1334.46 190.943 1335.62 185.549 1335.37 180.126C1335.12 174.704 1333.47 169.438 1330.58 164.844C1327.69 160.249 1323.66 156.481 1318.88 153.908C1314.1 151.335 1308.73 150.045 1303.31 150.162C1297.88 150.28 1292.58 151.802 1287.91 154.579C1283.25 157.357 1279.38 161.295 1276.7 166.011C1274.01 170.727 1272.59 176.058 1272.57 181.487C1272.56 186.915 1273.95 192.254 1276.61 196.984C1270.67 194.691 1264.23 194.022 1257.95 195.044C1251.67 196.067 1245.77 198.745 1240.87 202.802C1235.97 206.86 1232.23 212.151 1230.05 218.131C1227.87 224.11 1227.33 230.563 1228.47 236.824C1227.76 236.668 1227.05 236.524 1226.33 236.404C1217.31 234.847 1208.04 235.579 1199.37 238.533C1190.7 241.487 1182.91 246.568 1176.71 253.312C1166.34 250.561 1155.33 251.595 1145.66 256.228C1143.21 257.402 1140.86 258.791 1138.66 260.38C1138.38 259.708 1138.1 259.036 1137.77 258.364C1135.38 253.363 1131.93 248.946 1127.65 245.422C1123.37 241.897 1118.37 239.352 1113.01 237.964C1107.64 236.576 1102.04 236.379 1096.59 237.387C1091.14 238.395 1085.97 240.583 1081.46 243.798C1076.94 247.013 1073.18 251.177 1070.45 255.998C1067.71 260.819 1066.07 266.18 1065.62 271.705C1065.18 277.229 1065.95 282.785 1067.88 287.98C1069.81 293.176 1072.86 297.886 1076.8 301.78C1070.99 299.664 1064.78 298.825 1058.62 299.32C1052.45 299.815 1046.46 301.632 1041.06 304.648C1035.66 307.664 1030.97 311.808 1027.31 316.799C1023.65 321.789 1021.11 327.509 1019.86 333.568C1012.07 328.76 1003.19 325.985 994.044 325.496C984.9 325.008 975.778 326.822 967.516 330.772C966.856 331.084 966.208 331.42 965.572 331.768C964.971 325.431 962.693 319.369 958.971 314.205C955.249 309.042 950.219 304.963 944.397 302.389C938.576 299.815 932.173 298.838 925.849 299.56C919.525 300.282 913.508 302.676 908.416 306.496C909.69 301.224 909.576 295.712 908.087 290.496C906.597 285.281 903.782 280.54 899.915 276.736C896.049 272.932 891.263 270.194 886.024 268.789C880.786 267.384 875.272 267.36 870.021 268.719C864.77 270.078 859.961 272.774 856.061 276.545C852.162 280.315 849.306 285.031 847.77 290.233C846.235 295.435 846.074 300.946 847.301 306.23C848.529 311.513 851.104 316.388 854.776 320.38C850.027 320.924 845.357 322.011 840.856 323.62C839.425 304.199 830.661 286.049 816.342 272.85C802.022 259.651 783.22 252.393 763.746 252.545C744.273 252.698 725.586 260.251 711.475 273.672C697.365 287.093 688.887 305.379 687.76 324.82C685.667 320.754 682.725 317.186 679.133 314.356C675.541 311.526 671.382 309.501 666.939 308.418C662.497 307.335 657.873 307.219 653.382 308.079C648.89 308.938 644.636 310.752 640.906 313.399C637.177 316.045 634.06 319.462 631.766 323.418C629.472 327.374 628.055 331.777 627.611 336.328C627.166 340.879 627.705 345.473 629.19 349.798C630.676 354.123 633.073 358.078 636.22 361.396C631.39 359.463 626.201 358.592 621.004 358.844C615.808 359.096 610.727 360.464 606.106 362.855C601.486 365.246 597.435 368.604 594.228 372.701C591.022 376.797 588.735 381.537 587.524 386.596C581.103 382.343 573.718 379.77 566.045 379.111C558.371 378.453 550.655 379.731 543.604 382.828C543.04 383.08 542.488 383.344 541.948 383.608C541.619 378.265 539.872 373.107 536.886 368.664C533.9 364.221 529.784 360.654 524.961 358.332C520.139 356.009 514.784 355.014 509.448 355.449C504.113 355.885 498.99 357.734 494.608 360.808C495.821 356.413 495.876 351.778 494.765 347.355C493.655 342.933 491.418 338.873 488.273 335.572C485.127 332.27 481.181 329.84 476.817 328.518C472.453 327.195 467.821 327.026 463.372 328.025C458.923 329.025 454.809 331.16 451.43 334.222C448.052 337.285 445.524 341.17 444.093 345.5C442.662 349.829 442.377 354.456 443.266 358.928C444.155 363.4 446.187 367.566 449.164 371.02C445.157 371.366 441.203 372.171 437.38 373.42C436.663 356.766 429.522 341.037 417.456 329.535C405.391 318.033 389.339 311.652 372.67 311.731C356 311.81 340.01 318.344 328.054 329.96C316.098 341.576 309.107 357.372 308.548 374.032C302.52 369.041 295.195 365.867 287.431 364.883C279.666 363.899 271.782 365.144 264.698 368.474C257.615 371.803 251.626 377.08 247.429 383.686C243.233 390.293 241.003 397.957 241 405.784C241 407.056 241.084 408.316 241.192 409.552H1441V105.556Z" fill="url(#paint1_linear_1_407)"/>
<defs>
<linearGradient id="paint0_linear_1_407" x1="703.051" y1="112.958" x2="775.973" y2="526.454" gradientUnits="userSpaceOnUse">
<stop stop-color="#826DD6"/>
<stop offset="0.05" stop-color="#8266CD"/>
<stop offset="0.33" stop-color="#81409E"/>
<stop offset="0.55" stop-color="#812981"/>
<stop offset="0.68" stop-color="#812076"/>
<stop offset="0.74" stop-color="#741E6E"/>
<stop offset="1" stop-color="#3A184C"/>
</linearGradient>
<linearGradient id="paint1_linear_1_407" x1="831.964" y1="205.732" x2="885.184" y2="507.556" gradientUnits="userSpaceOnUse">
<stop stop-color="#826DD6"/>
<stop offset="0.05" stop-color="#8266CD"/>
<stop offset="0.33" stop-color="#81409E"/>
<stop offset="0.55" stop-color="#812981"/>
<stop offset="0.68" stop-color="#812076"/>
<stop offset="0.74" stop-color="#741E6E"/>
<stop offset="1" stop-color="#3A184C"/>
</linearGradient>
</defs>
</svg>
