<svg width="78" height="22" viewBox="0 0 78 22" fill="none" xmlns="http://www.w3.org/2000/svg">
<path d="M32.976 17.16C31.232 17.16 29.488 16.616 28.56 15.816L29.28 14.2C30.176 14.92 31.6 15.432 32.976 15.432C34.72 15.432 35.456 14.808 35.456 13.976C35.456 11.56 28.8 13.144 28.8 8.984C28.8 7.176 30.24 5.64 33.312 5.64C34.656 5.64 36.064 5.992 37.04 6.632L36.384 8.248C35.376 7.656 34.272 7.368 33.296 7.368C31.568 7.368 30.864 8.04 30.864 8.888C30.864 11.272 37.504 9.72 37.504 13.832C37.504 15.624 36.048 17.16 32.976 17.16ZM44.1105 8.36C46.6065 8.36 48.4465 10.088 48.4465 12.728C48.4465 15.384 46.6065 17.112 44.1105 17.112C43.0225 17.112 42.0625 16.744 41.3745 15.96V20.104H39.3745V8.456H41.2785V9.576C41.9505 8.76 42.9425 8.36 44.1105 8.36ZM43.8865 15.4C45.3265 15.4 46.4145 14.36 46.4145 12.728C46.4145 11.096 45.3265 10.056 43.8865 10.056C42.4465 10.056 41.3425 11.096 41.3425 12.728C41.3425 14.36 42.4465 15.4 43.8865 15.4ZM53.4979 8.36C55.9619 8.36 57.3859 9.528 57.3859 11.992V17H55.4979V15.96C55.0179 16.696 54.0899 17.112 52.8099 17.112C50.8579 17.112 49.6259 16.04 49.6259 14.552C49.6259 13.128 50.5859 12.008 53.1779 12.008H55.3859V11.88C55.3859 10.712 54.6819 10.024 53.2579 10.024C52.2979 10.024 51.3059 10.344 50.6659 10.872L49.8819 9.416C50.7939 8.712 52.1219 8.36 53.4979 8.36ZM53.2259 15.656C54.2019 15.656 55.0499 15.208 55.3859 14.328V13.336H53.3219C51.9619 13.336 51.5939 13.848 51.5939 14.472C51.5939 15.192 52.2019 15.656 53.2259 15.656ZM63.9508 17.112C61.2468 17.112 59.3268 15.288 59.3268 12.728C59.3268 10.168 61.2468 8.36 63.9508 8.36C65.6148 8.36 66.9427 9.048 67.5988 10.344L66.0628 11.24C65.5508 10.424 64.7828 10.056 63.9348 10.056C62.4628 10.056 61.3428 11.08 61.3428 12.728C61.3428 14.392 62.4628 15.4 63.9348 15.4C64.7828 15.4 65.5508 15.032 66.0628 14.216L67.5988 15.112C66.9427 16.392 65.6148 17.112 63.9508 17.112ZM77.2346 12.776C77.2346 12.936 77.2186 13.176 77.2026 13.368H70.4986C70.7386 14.616 71.7786 15.416 73.2666 15.416C74.2266 15.416 74.9786 15.112 75.5866 14.488L76.6586 15.72C75.8906 16.632 74.6906 17.112 73.2186 17.112C70.3546 17.112 68.4986 15.272 68.4986 12.728C68.4986 10.184 70.3706 8.36 72.9146 8.36C75.4106 8.36 77.2346 10.104 77.2346 12.776ZM72.9146 9.96C71.6186 9.96 70.6746 10.792 70.4826 12.04H75.3306C75.1706 10.808 74.2266 9.96 72.9146 9.96Z" fill="#CABDFF"/>
<path d="M12.9185 17.6708C12.3673 18.9895 11.3188 20.038 10.0002 20.5892C8.68151 20.038 7.63305 18.9895 7.08183 17.6708H8.96516C9.23683 18.0775 9.58766 18.4308 10.0002 18.7067C10.4127 18.4317 10.7635 18.0775 11.0352 17.6708H12.9185ZM15.0002 13.3417L16.6668 15.2317V16.8375H3.3335V15.2317L5.00016 13.3417V8.50418C5.00016 5.60001 7.08683 3.13167 10.0002 2.21667C12.9135 3.13167 15.0002 5.60084 15.0002 8.50418V13.3408V13.3417ZM14.3918 15.1708L13.3335 13.9708V8.50418C13.3335 6.57251 12.0252 4.81251 10.0002 3.98667C7.97516 4.81168 6.66683 6.57251 6.66683 8.50334V13.9708L5.6085 15.1708H14.3918ZM10.0002 10.1708C9.55814 10.1708 9.13421 9.99525 8.82165 9.68269C8.50909 9.37013 8.3335 8.9462 8.3335 8.50418C8.3335 8.06215 8.50909 7.63822 8.82165 7.32566C9.13421 7.0131 9.55814 6.83751 10.0002 6.83751C10.4422 6.83751 10.8661 7.0131 11.1787 7.32566C11.4912 7.63822 11.6668 8.06215 11.6668 8.50418C11.6668 8.9462 11.4912 9.37013 11.1787 9.68269C10.8661 9.99525 10.4422 10.1708 10.0002 10.1708Z" fill="#CABDFF"/>
</svg>
