<svg width="650" height="668" viewBox="0 0 650 668" fill="none" xmlns="http://www.w3.org/2000/svg">
<path opacity="0.45" d="M136.419 292.681C139.277 292.681 141.594 290.365 141.594 287.507C141.594 284.649 139.277 282.333 136.419 282.333C133.562 282.333 131.245 284.649 131.245 287.507C131.245 290.365 133.562 292.681 136.419 292.681Z" fill="#F2E6FF"/>
<path opacity="0.45" d="M190.576 217.556C195.339 217.556 199.2 213.695 199.2 208.932C199.2 204.169 195.339 200.308 190.576 200.308C185.813 200.308 181.952 204.169 181.952 208.932C181.952 213.695 185.813 217.556 190.576 217.556Z" fill="#F2E6FF"/>
<path opacity="0.45" d="M5.17447 119.994C8.03224 119.994 10.3489 117.678 10.3489 114.82C10.3489 111.962 8.03224 109.646 5.17447 109.646C2.31669 109.646 0 111.962 0 114.82C0 117.678 2.31669 119.994 5.17447 119.994Z" fill="#F2E6FF"/>
<path opacity="0.45" d="M161.439 174.052C164.297 174.052 166.614 171.735 166.614 168.878C166.614 166.02 164.297 163.703 161.439 163.703C158.582 163.703 156.265 166.02 156.265 168.878C156.265 171.735 158.582 174.052 161.439 174.052Z" fill="#F2E6FF"/>
<path opacity="0.45" d="M644.826 341.399C647.683 341.399 650 339.083 650 336.225C650 333.367 647.683 331.051 644.826 331.051C641.968 331.051 639.651 333.367 639.651 336.225C639.651 339.083 641.968 341.399 644.826 341.399Z" fill="#F2E6FF"/>
<path opacity="0.45" d="M546.762 394.849C551.525 394.849 555.386 390.988 555.386 386.225C555.386 381.462 551.525 377.601 546.762 377.601C541.999 377.601 538.138 381.462 538.138 386.225C538.138 390.988 541.999 394.849 546.762 394.849Z" fill="#F2E6FF"/>
<path opacity="0.45" d="M217.175 498.523C220.033 498.523 222.35 496.207 222.35 493.349C222.35 490.491 220.033 488.174 217.175 488.174C214.318 488.174 212.001 490.491 212.001 493.349C212.001 496.207 214.318 498.523 217.175 498.523Z" fill="#F2E6FF"/>
<path opacity="0.45" d="M501.487 117.926C503.202 117.926 504.593 116.535 504.593 114.82C504.593 113.105 503.202 111.714 501.487 111.714C499.771 111.714 498.381 113.105 498.381 114.82C498.381 116.535 499.771 117.926 501.487 117.926Z" fill="#F2E6FF"/>
<path opacity="0.45" d="M468.524 85.954C473.287 85.954 477.148 82.0929 477.148 77.3299C477.148 72.567 473.287 68.7058 468.524 68.7058C463.761 68.7058 459.9 72.567 459.9 77.3299C459.9 82.0929 463.761 85.954 468.524 85.954Z" fill="#F2E6FF"/>
<path opacity="0.45" d="M644.825 39.212C646.541 39.212 647.931 37.8214 647.931 36.106C647.931 34.3906 646.541 33 644.825 33C643.11 33 641.719 34.3906 641.719 36.106C641.719 37.8214 643.11 39.212 644.825 39.212Z" fill="#F2E6FF"/>
<path opacity="0.45" d="M619.872 391.399C622.73 391.399 625.046 389.083 625.046 386.225C625.046 383.367 622.73 381.051 619.872 381.051C617.014 381.051 614.697 383.367 614.697 386.225C614.697 389.083 617.014 391.399 619.872 391.399Z" fill="#F2E6FF"/>
<g filter="url(#filter0_d_1_408)">
<path d="M250.138 427.508L227.487 410.912L229.365 399.319L260.626 422.219L250.138 427.508Z" fill="url(#paint0_linear_1_408)"/>
<path d="M373.577 396.167C374.902 379.581 369.942 363.599 358.873 348.432C339.467 366.11 320.399 382.045 304.539 394.766C313.733 410.926 320.961 444.417 282.735 500.686C282.436 501.127 282.3 501.657 282.348 502.187C282.396 502.717 282.626 503.213 282.999 503.593C283.372 503.972 283.865 504.211 284.394 504.269C284.923 504.326 285.455 504.199 285.901 503.909C354.85 458.839 371.637 420.439 373.577 396.167Z" fill="url(#paint1_linear_1_408)"/>
<path d="M220.132 283.764C235.548 277.497 252.284 277.408 270.078 283.39C259.075 307.222 249.637 330.23 242.279 349.149C224.095 345.256 189.986 348.46 147.863 401.881C147.533 402.299 147.068 402.59 146.548 402.704C146.028 402.818 145.485 402.748 145.011 402.507C144.536 402.266 144.16 401.868 143.945 401.381C143.731 400.894 143.692 400.347 143.834 399.835C166.023 320.515 197.574 292.936 220.132 283.764Z" fill="url(#paint2_linear_1_408)"/>
<path d="M472.236 100.558C471.58 100.586 412.749 92.8436 346.957 159.357C281.165 225.87 225.261 395.656 225.06 396.167L264.926 425.372C265.357 425.025 410.412 320.515 453.964 237.734C497.516 154.954 472.405 101.191 472.236 100.558Z" fill="url(#paint3_linear_1_408)"/>
<path d="M472.236 100.558C471.669 100.582 427.016 94.75 372.068 137.094C386.472 150.676 401.709 163.348 417.691 175.034C433.645 186.742 450.313 197.444 467.599 207.078C491.408 141.923 472.386 101.106 472.236 100.558Z" fill="url(#paint4_linear_1_408)"/>
<path d="M413.259 242.444C425.103 226.274 421.595 203.565 405.425 191.721C389.255 179.878 366.546 183.385 354.702 199.556C342.859 215.726 346.366 238.435 362.536 250.278C378.706 262.122 401.416 258.614 413.259 242.444Z" fill="url(#paint5_linear_1_408)"/>
<path d="M409.727 239.858C420.139 225.642 417.056 205.676 402.839 195.263C388.622 184.85 368.656 187.934 358.244 202.151C347.831 216.368 350.915 236.334 365.131 246.746C379.348 257.159 399.314 254.075 409.727 239.858Z" fill="url(#paint6_linear_1_408)"/>
<path style="mix-blend-mode:multiply" opacity="0.7" d="M415.883 219.842C415.652 224.616 414.321 229.273 411.993 233.448C409.666 237.623 406.404 241.203 402.464 243.909C398.524 246.616 394.012 248.374 389.279 249.048C384.547 249.723 379.723 249.294 375.184 247.795C370.645 246.297 366.514 243.769 363.113 240.41C359.712 237.052 357.133 232.952 355.579 228.432C354.024 223.912 353.536 219.093 354.151 214.353C354.766 209.613 356.469 205.079 359.126 201.105C358.845 201.457 358.545 201.785 358.279 202.15C355.267 206.254 353.282 211.02 352.488 216.048C351.694 221.076 352.115 226.222 353.715 231.054C355.316 235.887 358.049 240.266 361.687 243.827C365.325 247.387 369.762 250.026 374.628 251.522C379.494 253.018 384.647 253.328 389.657 252.427C394.667 251.525 399.388 249.438 403.427 246.339C407.466 243.241 410.705 239.221 412.873 234.615C415.042 230.01 416.077 224.952 415.892 219.865L415.883 219.842Z" fill="url(#paint7_linear_1_408)"/>
<path opacity="0.5" d="M410.135 222.863C410.554 221.814 410.819 220.709 410.922 219.584C411.156 217.078 410.786 214.343 409.386 212.193C408.196 210.361 406.182 209.743 404.941 211.823C403.535 214.141 405.746 217.204 405.226 219.785C405.02 220.825 404.613 221.823 404.528 222.877C404.332 225.341 406.402 226.652 408.43 225.219C409.204 224.605 409.794 223.79 410.135 222.863Z" fill="#79678D"/>
<path d="M411.555 220.521C411.771 219.517 411.842 218.487 411.765 217.462C411.587 215.167 410.829 212.778 409.245 211.036C407.887 209.57 405.967 209.321 405.18 211.387C404.29 213.687 406.735 216.113 406.664 218.53C406.558 219.491 406.507 220.458 406.515 221.425C406.716 223.673 408.768 224.54 410.388 222.914C410.989 222.238 411.393 221.41 411.555 220.521Z" fill="#79678D"/>
<path opacity="0.5" d="M378.855 193.63C377.904 193.63 376.958 193.764 376.045 194.028C373.676 194.677 371.513 195.924 369.764 197.649C368.237 199.209 367.778 201.054 369.609 201.396C371.647 201.789 374.195 199.012 376.434 198.609C377.333 198.52 378.226 198.379 379.108 198.187C381.225 197.56 382.275 195.461 380.954 194.253C380.349 193.806 379.606 193.585 378.855 193.63Z" fill="#79678D"/>
<path d="M379.206 193.344C378.657 193.274 378.1 193.282 377.553 193.367C376.14 193.571 374.803 194.134 373.67 195.002C372.677 195.794 372.265 196.824 373.305 197.157C374.452 197.532 376.115 196.117 377.441 196.047C377.966 196.061 378.491 196.046 379.014 196C380.279 195.794 381.038 194.656 380.363 193.864C380.05 193.561 379.641 193.378 379.206 193.344Z" fill="#79678D"/>
<path opacity="0.5" d="M407.279 231.913C407.736 231.289 407.601 230.413 406.977 229.956C406.353 229.499 405.476 229.634 405.019 230.258C404.562 230.882 404.698 231.758 405.322 232.215C405.946 232.673 406.822 232.537 407.279 231.913Z" fill="#79678D"/>
<path opacity="0.5" d="M386.917 195.357C387.271 194.873 387.166 194.193 386.682 193.839C386.198 193.484 385.518 193.589 385.163 194.073C384.809 194.557 384.914 195.237 385.398 195.592C385.882 195.947 386.562 195.842 386.917 195.357Z" fill="#79678D"/>
<path d="M407.501 231.107C407.847 230.635 407.745 229.973 407.273 229.627C406.801 229.282 406.139 229.384 405.793 229.855C405.448 230.327 405.55 230.989 406.022 231.335C406.493 231.68 407.156 231.578 407.501 231.107Z" fill="#79678D"/>
<path d="M386.787 194.834C387.027 194.507 386.956 194.047 386.629 193.807C386.301 193.567 385.841 193.638 385.601 193.965C385.361 194.293 385.432 194.753 385.759 194.993C386.087 195.233 386.547 195.162 386.787 194.834Z" fill="#79678D"/>
<path d="M215.214 453.972L212.259 451.804L279.076 341.458L307.682 306.192L325.27 319.077L300.276 356.976L215.214 453.972Z" fill="url(#paint8_linear_1_408)"/>
<path opacity="0.3" d="M250.138 427.508L227.486 410.912C227.486 410.912 170.735 424.838 129.59 566.787L131.033 567.846C253.975 485.833 250.138 427.508 250.138 427.508Z" fill="url(#paint9_linear_1_408)"/>
<path d="M250.138 427.508L227.486 410.912C227.486 410.912 192.356 423.461 163.952 521.404C248.775 464.807 250.138 427.508 250.138 427.508Z" fill="url(#paint10_linear_1_408)"/>
</g>
<path opacity="0.15" d="M140.714 242.229C101.687 227.821 81.6463 184.366 96.0454 145.338C110.445 106.311 153.902 86.2679 192.936 100.667C231.969 115.066 252.003 158.527 237.604 197.554C223.205 236.582 179.744 256.622 140.714 242.229Z" fill="white"/>
<path opacity="0.45" d="M145.937 228.068C114.714 216.55 98.6831 181.778 110.195 150.556C121.707 119.333 156.49 103.305 187.705 114.822C218.919 126.34 234.967 161.112 223.446 192.335C211.926 223.557 177.159 239.585 145.937 228.068Z" fill="white"/>
<path d="M214.614 189.079C224.351 162.686 210.849 133.398 184.456 123.661C158.064 113.925 128.776 127.427 119.039 153.819C109.302 180.212 122.804 209.5 149.197 219.237C175.589 228.973 204.877 215.471 214.614 189.079Z" fill="url(#paint11_linear_1_408)"/>
<g style="mix-blend-mode:multiply" opacity="0.3">
<path d="M179.409 140.235C186.336 139.373 191.957 134.317 198.302 131.46C191.368 125.971 183.124 122.382 174.381 121.049C165.639 119.715 156.699 120.682 148.444 123.855C151.636 126.096 154.642 128.726 157.637 131.197C163.877 136.342 171.385 141.235 179.409 140.235Z" fill="url(#paint12_linear_1_408)"/>
</g>
<path d="M216.242 184.15C216.115 184.604 215.965 185.053 215.81 185.496C237.648 195.931 250.166 204.442 248.989 207.642C247.119 212.713 210.507 205.623 160.959 187.345C111.411 169.066 78.9669 150.68 80.8371 145.61C82.0174 142.413 97.04 144.064 120.397 150.301C120.56 149.857 120.746 149.422 120.951 148.993C98.5084 142.934 81.2915 140.44 79.5598 145.133C76.6839 152.93 119.114 173.364 160.497 188.633C201.879 203.902 247.401 215.907 250.277 208.116C252.012 203.417 237.274 194.13 216.242 184.15Z" fill="url(#paint13_linear_1_408)"/>
<path d="M216.711 181.928C216.64 182.371 216.555 182.813 216.456 183.252C250.186 198.768 269.436 212.067 267.514 217.29C264.823 224.582 220.349 217.046 158.43 194.205C96.5109 171.363 57.7963 148.212 60.4867 140.919C62.4095 135.71 85.6637 138.077 121.347 148.17C121.552 147.768 121.768 147.375 121.998 146.993C88.7253 137.572 61.7916 133.416 59.1983 140.446C55.4136 150.697 106.438 176.492 157.953 195.496C209.468 214.5 265.006 228.024 268.802 217.767C271.398 210.726 248.177 196.38 216.711 181.928Z" fill="url(#paint14_linear_1_408)"/>
<g style="mix-blend-mode:overlay" opacity="0.4">
<path d="M214.614 189.079C224.351 162.686 210.849 133.398 184.456 123.661C158.064 113.925 128.776 127.427 119.039 153.819C109.302 180.212 122.804 209.5 149.197 219.237C175.589 228.973 204.878 215.471 214.614 189.079Z" fill="#3B83D1"/>
</g>
<path opacity="0.15" d="M570.585 117.522C546.425 108.604 534.019 81.7028 542.933 57.5429C551.847 33.3829 578.749 20.9754 602.913 29.8891C627.076 38.8029 639.478 65.7071 630.565 89.867C621.651 114.027 594.747 126.433 570.585 117.522Z" fill="white"/>
<path opacity="0.45" d="M573.818 108.756C554.49 101.626 544.566 80.1008 551.692 60.7725C558.819 41.4442 580.351 31.5219 599.674 38.6519C618.997 45.7819 628.932 67.3073 621.8 86.6356C614.668 105.964 593.146 115.886 573.818 108.756Z" fill="white"/>
<path d="M616.333 84.6203C622.36 68.2821 614.001 50.1512 597.663 44.1238C581.325 38.0963 563.194 46.4548 557.167 62.7929C551.139 79.131 559.498 97.262 575.836 103.289C592.174 109.317 610.305 100.958 616.333 84.6203Z" fill="url(#paint15_linear_1_408)"/>
<g style="mix-blend-mode:multiply" opacity="0.3">
<path d="M594.539 54.3835C598.827 53.8501 602.307 50.7199 606.235 48.9516C601.942 45.5532 596.839 43.3318 591.426 42.5062C586.014 41.6806 580.48 42.2794 575.37 44.2434C577.346 45.631 579.207 47.2587 581.061 48.7886C584.924 51.9737 589.572 55.0027 594.539 54.3835Z" fill="url(#paint16_linear_1_408)"/>
</g>
<path d="M617.34 81.569C617.261 81.8503 617.169 82.1281 617.073 82.4026C630.592 88.8619 638.341 94.1309 637.612 96.1119C636.454 99.2507 613.79 94.8616 583.118 83.5466C552.445 72.2316 532.36 60.8497 533.518 57.7109C534.249 55.7316 543.548 56.7539 558.007 60.6147C558.109 60.3403 558.223 60.071 558.35 59.8051C544.458 56.0541 533.799 54.5104 532.727 57.4159C530.947 62.2424 557.213 74.8918 582.831 84.3441C608.449 93.7965 636.629 101.228 638.41 96.4052C639.483 93.4963 630.36 87.747 617.34 81.569Z" fill="url(#paint17_linear_1_408)"/>
<path d="M617.63 80.1934C617.587 80.4678 617.534 80.7411 617.473 81.0132C638.353 90.6182 650.27 98.8511 649.08 102.084C647.414 106.598 619.882 101.933 581.552 87.7933C543.221 73.6534 519.255 59.3214 520.92 54.8071C522.111 51.5826 536.506 53.0473 558.596 59.2957C558.723 59.047 558.857 58.8035 558.999 58.5668C538.401 52.7352 521.728 50.1624 520.123 54.5138C517.78 60.86 549.366 76.8282 581.257 88.5926C613.147 100.357 647.528 108.729 649.877 102.379C651.484 98.0209 637.11 89.1397 617.63 80.1934Z" fill="url(#paint18_linear_1_408)"/>
<g style="mix-blend-mode:overlay" opacity="0.4">
<path d="M616.333 84.6203C622.36 68.2821 614.002 50.1512 597.663 44.1238C581.325 38.0963 563.194 46.4548 557.167 62.7929C551.14 79.131 559.498 97.262 575.836 103.289C592.174 109.317 610.305 100.958 616.333 84.6203Z" fill="#3B83D1"/>
</g>
<defs>
<filter id="filter0_d_1_408" x="29.5903" y="0.295166" width="550" height="667.551" filterUnits="userSpaceOnUse" color-interpolation-filters="sRGB">
<feFlood flood-opacity="0" result="BackgroundImageFix"/>
<feColorMatrix in="SourceAlpha" type="matrix" values="0 0 0 0 0 0 0 0 0 0 0 0 0 0 0 0 0 0 127 0" result="hardAlpha"/>
<feOffset/>
<feGaussianBlur stdDeviation="50"/>
<feComposite in2="hardAlpha" operator="out"/>
<feColorMatrix type="matrix" values="0 0 0 0 0.585053 0 0 0 0 0.4312 0 0 0 0 0.8488 0 0 0 1 0"/>
<feBlend mode="normal" in2="BackgroundImageFix" result="effect1_dropShadow_1_408"/>
<feBlend mode="normal" in="SourceGraphic" in2="effect1_dropShadow_1_408" result="shape"/>
</filter>
<linearGradient id="paint0_linear_1_408" x1="230.429" y1="408.797" x2="261.821" y2="431.663" gradientUnits="userSpaceOnUse">
<stop stop-color="#673266"/>
<stop offset="0.08" stop-color="#72356E"/>
<stop offset="0.22" stop-color="#913F82"/>
<stop offset="0.38" stop-color="#BA4B9E"/>
<stop offset="0.45" stop-color="#BE53A1"/>
<stop offset="0.55" stop-color="#CA6AAB"/>
<stop offset="0.68" stop-color="#DE8FBA"/>
<stop offset="0.83" stop-color="#F8C2D0"/>
<stop offset="0.87" stop-color="#FFCFD5"/>
<stop offset="0.91" stop-color="#FFD6DB"/>
<stop offset="0.98" stop-color="#FFE8EB"/>
<stop offset="1" stop-color="#FFF0F2"/>
</linearGradient>
<linearGradient id="paint1_linear_1_408" x1="299.69" y1="412.384" x2="355.3" y2="452.889" gradientUnits="userSpaceOnUse">
<stop stop-color="#A31562"/>
<stop offset="0.2" stop-color="#BF1768"/>
<stop offset="0.49" stop-color="#E41A71"/>
<stop offset="0.65" stop-color="#F21B74"/>
<stop offset="0.67" stop-color="#F4286F"/>
<stop offset="0.82" stop-color="#FC6657"/>
<stop offset="0.89" stop-color="#FF7F4E"/>
<stop offset="0.91" stop-color="#FF8453"/>
<stop offset="0.93" stop-color="#FF9361"/>
<stop offset="0.96" stop-color="#FFAB78"/>
<stop offset="0.98" stop-color="#FFCD98"/>
<stop offset="1" stop-color="#FFE3AC"/>
</linearGradient>
<linearGradient id="paint2_linear_1_408" x1="167.878" y1="335.536" x2="253.307" y2="360.144" gradientUnits="userSpaceOnUse">
<stop stop-color="#FF7F4E"/>
<stop offset="0.1" stop-color="#FC6657"/>
<stop offset="0.31" stop-color="#F4286F"/>
<stop offset="0.35" stop-color="#F21B74"/>
<stop offset="0.47" stop-color="#E41A72"/>
<stop offset="0.68" stop-color="#BF186C"/>
<stop offset="0.96" stop-color="#841563"/>
<stop offset="1" stop-color="#7C1562"/>
</linearGradient>
<linearGradient id="paint3_linear_1_408" x1="307.147" y1="219.819" x2="418.172" y2="300.689" gradientUnits="userSpaceOnUse">
<stop stop-color="#F21B74"/>
<stop offset="0.04" stop-color="#DC196F"/>
<stop offset="0.11" stop-color="#BD1768"/>
<stop offset="0.17" stop-color="#AA1664"/>
<stop offset="0.21" stop-color="#A31562"/>
<stop offset="0.38" stop-color="#991562"/>
<stop offset="0.45" stop-color="#9F1563"/>
<stop offset="0.53" stop-color="#B01767"/>
<stop offset="0.63" stop-color="#CC186C"/>
<stop offset="0.73" stop-color="#F21B74"/>
<stop offset="0.75" stop-color="#F3276D"/>
<stop offset="0.8" stop-color="#F6455B"/>
<stop offset="0.86" stop-color="#FA773E"/>
<stop offset="0.92" stop-color="#FFAD1F"/>
<stop offset="0.93" stop-color="#FFAF24"/>
<stop offset="0.94" stop-color="#FFB533"/>
<stop offset="0.96" stop-color="#FFBE4B"/>
<stop offset="0.98" stop-color="#FFCB6E"/>
<stop offset="0.99" stop-color="#FFDC99"/>
<stop offset="1" stop-color="#FFE3AC"/>
</linearGradient>
<linearGradient id="paint4_linear_1_408" x1="375.183" y1="147.388" x2="483.331" y2="158.887" gradientUnits="userSpaceOnUse">
<stop stop-color="#673266"/>
<stop offset="0.08" stop-color="#72356E"/>
<stop offset="0.22" stop-color="#913F82"/>
<stop offset="0.38" stop-color="#BA4B9E"/>
<stop offset="0.45" stop-color="#BE53A1"/>
<stop offset="0.55" stop-color="#CA6AAB"/>
<stop offset="0.68" stop-color="#DE8FBA"/>
<stop offset="0.83" stop-color="#F8C2D0"/>
<stop offset="0.87" stop-color="#FFCFD5"/>
<stop offset="0.91" stop-color="#FFD6DB"/>
<stop offset="0.98" stop-color="#FFE8EB"/>
<stop offset="1" stop-color="#FFF0F2"/>
</linearGradient>
<linearGradient id="paint5_linear_1_408" x1="348.056" y1="226.592" x2="419.787" y2="215.513" gradientUnits="userSpaceOnUse">
<stop offset="0.14" stop-color="#372345"/>
<stop offset="0.25" stop-color="#3B2448"/>
<stop offset="0.35" stop-color="#472850"/>
<stop offset="0.46" stop-color="#5B2E5E"/>
<stop offset="0.56" stop-color="#773771"/>
<stop offset="0.67" stop-color="#9B4289"/>
<stop offset="0.74" stop-color="#BA4B9E"/>
<stop offset="0.78" stop-color="#BE53A1"/>
<stop offset="0.83" stop-color="#CA6AAB"/>
<stop offset="0.9" stop-color="#DE8FBA"/>
<stop offset="0.98" stop-color="#F8C2D0"/>
<stop offset="1" stop-color="#FFCFD5"/>
</linearGradient>
<linearGradient id="paint6_linear_1_408" x1="358.192" y1="202.206" x2="409.679" y2="239.916" gradientUnits="userSpaceOnUse">
<stop stop-color="#79678D"/>
<stop offset="0.04" stop-color="#5B4C74"/>
<stop offset="0.08" stop-color="#40335E"/>
<stop offset="0.13" stop-color="#2B204C"/>
<stop offset="0.19" stop-color="#1C1240"/>
<stop offset="0.25" stop-color="#130A38"/>
<stop offset="0.35" stop-color="#100836"/>
<stop offset="0.5" stop-color="#130B39"/>
<stop offset="0.62" stop-color="#1D1441"/>
<stop offset="0.74" stop-color="#2E234F"/>
<stop offset="0.84" stop-color="#463963"/>
<stop offset="0.94" stop-color="#65557C"/>
<stop offset="1" stop-color="#79678D"/>
</linearGradient>
<linearGradient id="paint7_linear_1_408" x1="358.592" y1="211.526" x2="410.287" y2="249.18" gradientUnits="userSpaceOnUse">
<stop stop-color="#79678D"/>
<stop offset="0.04" stop-color="#5B4C74"/>
<stop offset="0.08" stop-color="#40335E"/>
<stop offset="0.13" stop-color="#2B204C"/>
<stop offset="0.19" stop-color="#1C1240"/>
<stop offset="0.25" stop-color="#130A38"/>
<stop offset="0.35" stop-color="#100836"/>
<stop offset="0.5" stop-color="#130B39"/>
<stop offset="0.62" stop-color="#1D1441"/>
<stop offset="0.74" stop-color="#2E234F"/>
<stop offset="0.84" stop-color="#463963"/>
<stop offset="0.94" stop-color="#65557C"/>
<stop offset="1" stop-color="#79678D"/>
</linearGradient>
<linearGradient id="paint8_linear_1_408" x1="258.653" y1="380.118" x2="279.931" y2="395.616" gradientUnits="userSpaceOnUse">
<stop offset="0.31" stop-color="#B71666"/>
<stop offset="0.42" stop-color="#C51769"/>
<stop offset="0.62" stop-color="#EB1A72"/>
<stop offset="0.65" stop-color="#F21B74"/>
<stop offset="0.69" stop-color="#F5336B"/>
<stop offset="0.76" stop-color="#FA5C5B"/>
<stop offset="0.82" stop-color="#FE7652"/>
<stop offset="0.86" stop-color="#FF7F4E"/>
<stop offset="0.88" stop-color="#FF8857"/>
<stop offset="0.92" stop-color="#FFA16E"/>
<stop offset="0.97" stop-color="#FFC994"/>
<stop offset="1" stop-color="#FFE3AC"/>
</linearGradient>
<linearGradient id="paint9_linear_1_408" x1="134.717" y1="573.18" x2="243.041" y2="424.464" gradientUnits="userSpaceOnUse">
<stop stop-color="#FFFFD5"/>
<stop offset="0.18" stop-color="#FFF4C0"/>
<stop offset="0.54" stop-color="#FED88C"/>
<stop offset="0.64" stop-color="#FED07C"/>
<stop offset="0.7" stop-color="#FECA7A"/>
<stop offset="0.79" stop-color="#FEB974"/>
<stop offset="0.88" stop-color="#FF9E6A"/>
<stop offset="0.98" stop-color="#FF775C"/>
<stop offset="1" stop-color="#FF6F59"/>
</linearGradient>
<linearGradient id="paint10_linear_1_408" x1="168.297" y1="527.078" x2="243.041" y2="424.464" gradientUnits="userSpaceOnUse">
<stop stop-color="#FFFFD5"/>
<stop offset="0.18" stop-color="#FFF4C0"/>
<stop offset="0.54" stop-color="#FED88C"/>
<stop offset="0.64" stop-color="#FED07C"/>
<stop offset="0.7" stop-color="#FECA7A"/>
<stop offset="0.79" stop-color="#FEB974"/>
<stop offset="0.88" stop-color="#FF9E6A"/>
<stop offset="0.98" stop-color="#FF775C"/>
<stop offset="1" stop-color="#FF6F59"/>
</linearGradient>
<linearGradient id="paint11_linear_1_408" x1="145.501" y1="125.19" x2="188.152" y2="217.702" gradientUnits="userSpaceOnUse">
<stop stop-color="#826DD6"/>
<stop offset="0.32" stop-color="#824EB0"/>
<stop offset="0.76" stop-color="#812076"/>
<stop offset="0.84" stop-color="#6E1E6B"/>
<stop offset="0.99" stop-color="#3C184D"/>
<stop offset="1" stop-color="#3A184C"/>
</linearGradient>
<linearGradient id="paint12_linear_1_408" x1="167.502" y1="114.93" x2="210.15" y2="207.441" gradientUnits="userSpaceOnUse">
<stop stop-color="#FFF6E5"/>
<stop offset="0.12" stop-color="#FFE5D9"/>
<stop offset="0.53" stop-color="#FFB0B3"/>
<stop offset="0.83" stop-color="#FF8F9B"/>
<stop offset="1" stop-color="#FF8392"/>
</linearGradient>
<linearGradient id="paint13_linear_1_408" x1="79.4102" y1="176.628" x2="250.416" y2="176.628" gradientUnits="userSpaceOnUse">
<stop offset="0.01" stop-color="#7240D6"/>
<stop offset="0.43" stop-color="#7A69EB"/>
<stop offset="0.79" stop-color="#8086F9"/>
<stop offset="1" stop-color="#8291FF"/>
</linearGradient>
<linearGradient id="paint14_linear_1_408" x1="59.0016" y1="179.107" x2="268.999" y2="179.107" gradientUnits="userSpaceOnUse">
<stop offset="0.01" stop-color="#7240D6"/>
<stop offset="0.43" stop-color="#7A69EB"/>
<stop offset="0.79" stop-color="#8086F9"/>
<stop offset="1" stop-color="#8291FF"/>
</linearGradient>
<linearGradient id="paint15_linear_1_408" x1="573.548" y1="45.07" x2="599.951" y2="102.339" gradientUnits="userSpaceOnUse">
<stop stop-color="#826DD6"/>
<stop offset="0.32" stop-color="#824EB0"/>
<stop offset="0.76" stop-color="#812076"/>
<stop offset="0.84" stop-color="#6E1E6B"/>
<stop offset="0.99" stop-color="#3C184D"/>
<stop offset="1" stop-color="#3A184C"/>
</linearGradient>
<linearGradient id="paint16_linear_1_408" x1="587.168" y1="38.7185" x2="613.569" y2="95.9872" gradientUnits="userSpaceOnUse">
<stop stop-color="#FFF6E5"/>
<stop offset="0.12" stop-color="#FFE5D9"/>
<stop offset="0.53" stop-color="#FFB0B3"/>
<stop offset="0.83" stop-color="#FF8F9B"/>
<stop offset="1" stop-color="#FF8392"/>
</linearGradient>
<linearGradient id="paint17_linear_1_408" x1="532.635" y1="76.9123" x2="638.495" y2="76.9123" gradientUnits="userSpaceOnUse">
<stop offset="0.01" stop-color="#7240D6"/>
<stop offset="0.43" stop-color="#7A69EB"/>
<stop offset="0.79" stop-color="#8086F9"/>
<stop offset="1" stop-color="#8291FF"/>
</linearGradient>
<linearGradient id="paint18_linear_1_408" x1="520.001" y1="78.4473" x2="649.999" y2="78.4473" gradientUnits="userSpaceOnUse">
<stop offset="0.01" stop-color="#7240D6"/>
<stop offset="0.43" stop-color="#7A69EB"/>
<stop offset="0.79" stop-color="#8086F9"/>
<stop offset="1" stop-color="#8291FF"/>
</linearGradient>
</defs>
</svg>
